# xmcd
#
# Track frame offsets:
#	150
#	18005
#	34773
#	50971
#	69479
#	88612
#	103953
#	121800
#	140492
#	154459
#	173517
#	189652
#	208090
#	222877
#	236399
#	255109
#	272600
#
# Disc length: 3838 seconds
#
# Revision: 1
# Processed by: cddbd v1.5.1PL0 Copyright (c) Steve Scherf et al.
# Submitted via: audiograbber 1.83.01
#
DISCID=ec0efc11
DTITLE=Various Artist - Hott Country 111
DYEAR=2005
DGENRE=Country
TTITLE0=Sara Evans - A Real Fine Place
TTITLE1=Shooter Jennings - 4th Of July
TTITLE2=Sugarland - Something More
TTITLE3=Brad Paisley - Alcohol
TTITLE4=George Strait - You'll Be There
TTITLE5=Blaine Larson - The Best Man
TTITLE6=Montgomery Gentry - Something To Be Proud Of
TTITLE7=Josh Gracin - Stay With Me ( Brass Bed )
TTITLE8=Aaron Pritchett - Lucky For Me
TTITLE9=Miranda Lambert - Bring Me Down
TTITLE10=Ryan Shupe and The Rubber Band - Dream Big
TTITLE11=Sean Hogan - My Lovin' End begins
TTITLE12=Cowboy Troy - I Play Chicken With The Train
TTITLE13=Amanda Wilkinson - No More Me And You
TTITLE14=John Prine - Glory Of True Love
TTITLE15=Cross Canadian Ragweed - Lonely Girl
TTITLE16=Ryan Adams and The Cardinals - Let It Ride
EXTD=
EXTT0=
EXTT1=
EXTT2=
EXTT3=
EXTT4=
EXTT5=
EXTT6=
EXTT7=
EXTT8=
EXTT9=
EXTT10=
EXTT11=
EXTT12=
EXTT13=
EXTT14=
EXTT15=
EXTT16=
PLAYORDER=
